<svg xmlns="http://www.w3.org/2000/svg" viewBox="0 0 165.647 165.647" xml:space="preserve" width="176" height="176"><path d="M0 82.824c0 45.553 37.271 82.824 82.824 82.824s82.824-37.271 82.824-82.824S128.376 0 82.824 0 0 37.271 0 82.824"/><path fill="#fff" d="M71.435 129.929c-3.106-5.176-7.247-9.835-12.424-12.941s-10.353-5.694-16.565-7.247c-.518 0-1.035 0-1.553.518s-.518 1.035-.518 1.553 0 1.035.518 1.035c6.729 9.835 17.082 17.082 28.471 20.188h1.553s.518 0 .518-.518l.518-.518v-1.035c0-.518 0-1.035-.518-1.035m61.082-61.082v-.518c-2.588-9.318-7.765-17.6-15.012-23.812s-15.529-10.871-24.847-12.424h-.518c-.518 0-1.035 0-1.553.518s-.518 1.035-.518 1.553v.518c4.659 28.471 1.553 57.459-8.8 84.376 0 .518-.518.518-.518 1.035s-.518.518-1.035.518h-1.035s-.518 0-.518-.518l-.518-.518v-1.035s-.518-3.624-.518-5.176c-3.106-24.847-10.353-48.659-22.259-70.918 0-.518-.518-.518-.518-.518l-.518-.518h-2.067C44.518 47.104 38.824 54.351 35.2 63.151v1.553c0 .518.518 1.035 1.035 1.035C47.623 72.986 56.941 82.304 63.67 94.21c6.729 11.388 10.353 24.847 10.871 37.788 0 .518 0 1.035.518 1.553s1.035.518 1.035.518c1.035 0 2.588.518 3.624.518.518 0 1.035 0 1.553-.518s.518-.518.518-1.035c2.588-13.459 8.282-26.4 17.082-37.271q13.2-16.306 32.612-24.847c.518 0 .518-.518 1.035-.518zm-4.659 39.341c0-.518 0-1.035-.518-1.553s-1.035-.518-1.553-.518h-.518c-16.047 3.624-30.541 12.424-40.894 24.847-.518.518-.518 1.035-.518 1.553s0 1.035.518 1.553 1.035.518 1.553.518c8.282-.518 16.565-3.106 23.812-7.247s13.459-10.353 17.6-17.6c.518-.518.518-1.035.518-1.553"/></svg>